<svg width="auto" height="auto" viewBox="0 0 120 64" fill="none" xmlns="http://www.w3.org/2000/svg">
<path d="M33.3913 0.695653C35.0725 0.231884 36.2319 0 36.8696 0C37.7971 0 38.2609 0.376812 38.2609 1.13044C38.2609 2.23188 37.5362 3.13044 36.087 3.82609C34.6956 4.46377 32.3478 5.04348 29.0435 5.56522C25.913 5.97102 23.971 6.4058 23.2174 6.86956C22.6957 7.15942 22.1159 7.88406 21.4783 9.04348C20.8985 10.1449 19.7681 12.7246 18.087 16.7826C14.1449 26.1739 12.1739 31.3043 12.1739 32.1739C12.1739 32.2899 12.2319 32.5217 12.3478 32.8696C12.6377 33.4493 12.4928 34.029 11.913 34.6087C11.4493 35.1884 10.8985 36.3478 10.2609 38.087C9.73913 39.7681 9.04348 41.3623 8.17391 42.8696C7.42029 44.3768 7.04348 45.2754 7.04348 45.5652C7.04348 45.7971 6.6087 47.5942 5.73913 50.9565C5.04348 53.5072 4.69565 55.2464 4.69565 56.1739C4.69565 56.5217 4.72464 56.7826 4.78261 56.9565C4.95652 57.4203 5.04348 58.029 5.04348 58.7826C5.04348 60.8696 4.72464 62.3478 4.08696 63.2174C3.68116 63.7391 3.07246 64 2.26087 64C1.44928 64 0.869565 63.7681 0.521739 63.3043C0.173913 62.8406 0 62 0 60.7826C0 59.3913 0.202898 57.8841 0.608696 56.2609C1.94203 50.4058 3.15942 46.3768 4.26087 44.1739C4.6087 43.4783 4.92754 42.4928 5.21739 41.2174C5.56522 39.8841 5.94203 38.8696 6.34783 38.1739C6.63768 37.5942 7.01449 36.4348 7.47826 34.6956C8 32.9565 8.37681 31.8551 8.60869 31.3913C8.95652 30.8116 9.36232 29.7391 9.82609 28.1739C10.3478 26.4928 11.4203 23.7101 13.0435 19.8261C14.7246 15.942 15.971 13.2754 16.7826 11.8261C17.7681 9.97102 18.2609 8.81159 18.2609 8.34783C18.2609 7.47826 16.8116 7.04348 13.913 7.04348C12.2319 7.04348 10.8406 7.07246 9.73913 7.13044C8.4058 7.18841 6.86956 7.21739 5.13043 7.21739C3.44927 7.21739 2.4058 7.13044 2 6.95652C1.65217 6.72464 1.47826 6.23189 1.47826 5.47826C1.47826 4.55072 2.23188 4.08696 3.73913 4.08696C4.26087 4.08696 5.07246 3.88406 6.17391 3.47826C6.92754 3.18841 7.73913 3.04348 8.60869 3.04348C9.24638 3.04348 9.76812 3.07247 10.1739 3.13044C10.5797 3.18841 11.3333 3.21739 12.4348 3.21739C15.4493 3.21739 19.1304 2.95652 23.4783 2.43478C27.8841 1.91304 31.1884 1.33333 33.3913 0.695653Z" fill="#222222"/>
<path d="M30.3641 31.5652C32.5091 28.3768 33.9583 26.4638 34.712 25.8261C35.4656 25.1884 35.9293 24.8696 36.1033 24.8696C36.3931 24.8696 37.1467 25.4203 38.3641 26.5217C40.3931 28.3768 42.0453 29.3043 43.3206 29.3043C43.9004 29.3043 44.1902 29.5362 44.1902 30C44.1902 30.5217 43.9004 31.0435 43.3206 31.5652C42.7409 32.1449 42.0453 32.4348 41.2337 32.4348C40.3062 32.4348 39.2047 31.971 37.9293 31.0435C36.7699 30.1739 35.9293 29.7391 35.4076 29.7391C34.9438 29.7391 33.6395 31.7101 31.4946 35.6522C29.5235 39.3043 27.6685 43.2754 25.9293 47.5652C24.1902 51.7971 23.1757 54.9275 22.8859 56.9565C22.7699 57.8261 22.4511 58.5217 21.9293 59.0435C21.4656 59.5652 20.9438 59.8261 20.3641 59.8261C19.7264 59.8261 19.2047 59.5072 18.7989 58.8696C18.5091 58.4058 18.3641 58.058 18.3641 57.8261C18.3641 57.7681 18.567 57.0145 18.9728 55.5652C19.4366 54.1739 19.9293 52.029 20.4511 49.1304C21.0308 46.2319 21.3786 43.8551 21.4946 42C21.5525 41.6522 21.5815 41.1884 21.5815 40.6087C21.5815 39.7391 21.4076 39.3043 21.0598 39.3043C20.8279 39.3043 20.0163 39.942 18.625 41.2174C17.4076 42.3768 16.567 42.9565 16.1033 42.9565C15.9293 42.9565 15.7844 42.9275 15.6685 42.8696C14.9728 42.5797 14.625 42.029 14.625 41.2174C14.625 40.6377 15.4366 39.4493 17.0598 37.6522C17.4076 37.3043 18.7409 35.8551 21.0598 33.3043C22.1033 32.087 23.0018 31.4783 23.7554 31.4783C24.2772 31.4783 24.7409 31.7391 25.1467 32.2609C25.6105 32.7246 25.7554 33.4203 25.5815 34.3478C25.4076 35.6812 25.7844 36.3478 26.712 36.3478C26.8859 36.3478 28.1033 34.7536 30.3641 31.5652Z" fill="#222222"/>
<path d="M55.3145 36.2609C55.3145 36.2029 55.3435 36.1159 55.4015 36V35.8261C55.4015 35.5942 55.2855 35.4783 55.0537 35.4783C54.1841 35.4783 52.329 36.9565 49.4884 39.913C46.7058 42.8116 44.6189 45.4783 43.2276 47.913C42.0102 50.1739 41.4015 51.5072 41.4015 51.913C41.4015 52.2029 41.5464 52.4928 41.8363 52.7826C42.2421 53.1884 42.6479 53.3913 43.0537 53.3913C43.6913 53.3913 44.7638 52.8406 46.2711 51.7391C48.1841 50.4638 49.3435 49.7101 49.7493 49.4783C50.6189 49.0145 51.1696 48.2899 51.4015 47.3043C51.7493 46.1449 52.2711 44.8696 52.9667 43.4783C53.6624 42.2029 54.445 39.7971 55.3145 36.2609ZM56.6189 30.6957C57.1986 30.3478 57.8942 30.1739 58.7058 30.1739C59.7493 30.1739 60.416 30.4348 60.7058 30.9565C60.9957 31.5362 61.1406 32.1739 61.1406 32.8696C61.1406 34.2609 60.7638 35.5652 60.0102 36.7826C59.1406 38.2899 58.2711 40.3768 57.4015 43.0435C56.358 46.1739 55.8363 48.7536 55.8363 50.7826C55.8363 52.9855 56.0971 54.3478 56.6189 54.8696C56.9087 55.1594 57.2566 55.3043 57.6624 55.3043C58.474 55.3043 59.6334 54.5797 61.1406 53.1304C62.1261 52.2029 62.8218 51.7391 63.2276 51.7391C63.4595 51.7391 63.8942 52 64.5319 52.5217C64.9377 52.9275 65.1406 53.2754 65.1406 53.5652C65.1406 54.087 64.5029 54.8985 63.2276 56C60.9667 57.913 59.1406 58.8696 57.7493 58.8696C57.1116 58.8696 56.474 58.6956 55.8363 58.3478C55.1406 58 54.445 57.4493 53.7493 56.6956C53.1116 55.8841 52.7348 55.1594 52.6189 54.5217C52.387 53.4783 52.2131 52.8406 52.0971 52.6087C51.9812 52.3768 51.7493 52.2609 51.4015 52.2609C50.8218 52.2609 50.0392 52.8116 49.0537 53.913C47.9522 55.1304 46.6479 56.087 45.1406 56.7826C43.9232 57.3623 42.8508 57.6522 41.9232 57.6522C40.9377 57.6522 39.9522 57.2174 38.9667 56.3478C38.2711 55.6522 37.9232 54.4928 37.9232 52.8696C37.9232 50.8986 38.2131 49.3913 38.7928 48.3478C39.3725 47.3043 41.0247 45.1884 43.7493 42C47.2855 37.8261 50.1261 35.0145 52.2711 33.5652C54.416 32 55.8653 31.0435 56.6189 30.6957Z" fill="#222222"/>
<path d="M79.6617 27.913C80.1834 27.3913 80.6762 27.1304 81.1399 27.1304C81.5457 27.1304 81.9225 27.3043 82.2704 27.6522C82.5602 27.942 82.8211 28.9565 83.053 30.6957C83.4008 33.5942 83.9225 35.1594 84.6182 35.3913L84.7921 35.4783C84.8501 35.4783 84.9081 35.4783 84.966 35.4783C86.2414 35.4783 88.1544 34.3768 90.7051 32.1739C92.908 30.3188 94.4153 29.3913 95.2269 29.3913C95.5747 29.3913 95.8356 29.4493 96.0095 29.5652C96.4733 29.8551 96.7051 30.2319 96.7051 30.6957C96.7051 31.8551 95.4008 33.3333 92.7921 35.1304C91.1689 36.1739 89.9515 37.1014 89.1399 37.913C88.0965 38.8406 86.8791 39.3913 85.4878 39.5652C84.0965 39.7391 83.1109 40.2899 82.5312 41.2174C81.8936 42.029 81.5747 42.8985 81.5747 43.8261C81.5747 44.5217 81.3139 45.4493 80.7921 46.6087C80.3863 47.5942 80.0095 48.7826 79.6617 50.1739C79.3718 51.5072 78.995 52.5507 78.5312 53.3043C78.1254 54 77.4298 54.7536 76.4443 55.5652C75.053 56.6667 73.7486 57.2174 72.5312 57.2174C71.6617 57.2174 70.7631 56.9275 69.8356 56.3478C68.7921 55.7101 68.0385 55.0725 67.5747 54.4348C67.111 53.7971 66.6762 52.6377 66.2704 50.9565C65.8646 49.2174 65.6037 48.1739 65.4878 47.8261C65.024 46.6087 64.7921 45.1884 64.7921 43.5652C64.7921 40.7246 65.5747 38.1159 67.1399 35.7391C68.3573 33.8841 69.3718 32.9565 70.1834 32.9565C70.3573 32.9565 70.5023 33.0145 70.6182 33.1304C70.6762 33.1884 70.7051 33.3623 70.7051 33.6522C70.7051 34.4638 70.5602 35.6812 70.2704 37.3043C69.9805 38.9275 69.6907 40.058 69.4008 40.6956C69.1689 41.2174 69.053 41.8261 69.053 42.5217C69.053 43.0435 69.1399 44.0869 69.3139 45.6522C69.7196 48.8406 70.4443 50.9565 71.4878 52C71.8356 52.3478 72.1834 52.5217 72.5312 52.5217C73.2269 52.5217 74.1834 51.6232 75.4008 49.8261C78.5892 44.8985 80.1834 40.5797 80.1834 36.8696C80.1834 35.5942 80.0095 34.2899 79.6617 32.9565C79.1979 31.5072 78.966 30.3768 78.966 29.5652C78.966 28.9275 79.1979 28.3768 79.6617 27.913Z" fill="#222222"/>
<path d="M97.4022 35.3913C97.2282 35.1594 97.0543 35.0435 96.8804 35.0435C96.4746 35.0435 95.9239 35.6232 95.2282 36.7826C93.8949 39.1014 93.2282 40.9565 93.2282 42.3478C93.2282 42.9275 93.4022 43.2174 93.75 43.2174H94.0109C94.5326 42.9855 95.2282 41.913 96.0978 40C97.0253 38.087 97.4891 36.6956 97.4891 35.8261C97.4891 35.5942 97.4601 35.4493 97.4022 35.3913ZM96.2717 30.3478C96.8514 30.058 97.2862 29.913 97.5761 29.913C97.8659 29.913 98.3007 30.058 98.8804 30.3478C99.9819 30.8696 100.533 31.913 100.533 33.4783C100.533 34.3478 100.446 35.5072 100.272 36.9565C100.098 38.9275 99.9239 40.2609 99.75 40.9565C99.5761 41.5942 99.1123 42.5217 98.3587 43.7391C97.1993 45.6522 95.8659 47.5362 94.3587 49.3913C92.9094 51.1304 92.1848 52.2899 92.1848 52.8696C92.1848 53.6812 92.5326 54.087 93.2282 54.087C93.75 54.087 95.1703 53.3623 97.4891 51.913C99.8659 50.4058 101.634 49.1014 102.793 48C104.127 46.7246 105.112 46.087 105.75 46.087C106.04 46.087 106.243 46.1449 106.359 46.2609C106.591 46.4348 106.707 46.6957 106.707 47.0435C106.707 47.971 106.185 48.8116 105.141 49.5652C104.156 50.2609 102.678 51.6232 100.707 53.6522C99.0253 55.3333 97.692 56.4638 96.7065 57.0435C95.721 57.5652 94.5616 57.8261 93.2282 57.8261C92.1848 57.8261 91.1413 57.5652 90.0978 57.0435C89.1123 56.4638 88.5036 55.7971 88.2717 55.0435C88.0398 54.4058 87.4601 54.1159 86.5326 54.1739C85.663 54.2319 85.1123 53.971 84.8804 53.3913C84.8224 53.2754 84.7935 53.1304 84.7935 52.9565C84.7935 52.6087 85.3442 51.7971 86.4456 50.5217C87.663 49.1884 88.2717 48.2898 88.2717 47.8261C88.2717 47.2464 88.5616 46.087 89.1413 44.3478C89.721 42.6087 90.1848 40.8696 90.5326 39.1304C90.8224 37.3913 91.5471 35.6232 92.7065 33.8261C93.9239 32.029 95.1123 30.8696 96.2717 30.3478Z" fill="#222222"/>
<path d="M114.445 16.5217C114.851 15.7681 114.88 15.2174 114.532 14.8696C114.126 14.4638 113.691 14.6957 113.228 15.5652C112.01 18 111.401 19.913 111.401 21.3043C111.401 21.942 111.604 22.2609 112.01 22.2609C112.3 22.2609 112.677 21.7681 113.141 20.7826C113.662 19.7391 113.923 18.9565 113.923 18.4348C113.923 17.971 114.097 17.3333 114.445 16.5217ZM114.184 7.91304C115.228 7.10145 115.952 6.69565 116.358 6.69565C116.706 6.69565 117.112 6.89855 117.575 7.30435C118.155 7.71014 118.503 9.18841 118.619 11.7391C118.677 12.3188 118.706 13.0725 118.706 14C118.706 15.3333 118.474 16.7246 118.01 18.1739C116.851 21.8841 114.648 26.2319 111.401 31.2174C109.257 34.4638 108.01 36.6957 107.662 37.913C106.735 41.6232 106.271 45.5072 106.271 49.5652C106.271 51.8841 106.474 53.0435 106.88 53.0435C107.286 53.0435 108.706 51.942 111.141 49.7391C113.633 47.5362 115.286 45.8551 116.097 44.6956C116.793 43.7101 117.488 43.1014 118.184 42.8696C118.764 42.6956 119.112 42.6667 119.228 42.7826C119.344 42.8406 119.488 43.1884 119.662 43.8261C119.72 43.942 119.749 44.087 119.749 44.2609C119.749 44.7826 119.054 45.8261 117.662 47.3913C116.039 49.1304 114.532 50.9855 113.141 52.9565C111.807 54.8116 110.561 56.1159 109.401 56.8696C108.3 57.6232 107.025 58 105.575 58H105.054C104.648 58 104.126 57.5942 103.488 56.7826C103.025 56.087 102.793 54.6377 102.793 52.4348C102.793 50.5797 102.822 48.9565 102.88 47.5652C103.054 42 103.344 38.2029 103.749 36.1739C105.315 29.2754 106.619 24.8985 107.662 23.0435C108.242 22.1159 108.59 20.9275 108.706 19.4783C108.822 18.3768 109.257 16.7826 110.01 14.6957C110.764 12.6087 111.401 11.1014 111.923 10.1739C112.329 9.53623 113.083 8.78261 114.184 7.91304Z" fill="#222222"/>
</svg>
